<svg width="315" height="312" viewBox="0 0 315 312" fill="none" xmlns="http://www.w3.org/2000/svg">
<path d="M98.6026 77.3696C96.4826 77.9096 94.8626 78.2696 93.2926 78.7496C88.0126 80.3496 82.8426 82.2496 78.2926 85.4396C74.8026 87.8796 72.2326 90.9896 71.6126 95.4396C71.3162 98.1633 71.8165 100.915 73.0526 103.36C74.7915 107.308 77.4858 110.762 80.8926 113.41C85.3426 116.84 86.2426 121.6 86.5926 126.69C86.6726 127.87 85.9826 128.31 84.9226 128.18C84.3741 128.09 83.8459 127.904 83.3626 127.63C75.2226 123.16 67.0526 118.71 59.9626 112.63C56.1688 109.59 53.0206 105.823 50.7026 101.55C47.4226 95.0096 48.9026 89.2696 54.9626 85.1196C59.7326 81.8596 65.1726 80.2496 70.7126 78.9896C79.6316 77.0919 88.6995 75.9777 97.8126 75.6596C98.4043 75.6797 98.9888 75.5243 99.4924 75.2129C99.996 74.9015 100.396 74.448 100.643 73.9096C108.561 60.5049 120.795 50.1852 135.343 44.6396C154.853 37.0996 174.003 38.7496 192.623 47.9596C192.963 48.1196 193.313 48.2596 193.913 48.5196C193.773 47.6696 193.713 47.0296 193.553 46.4096C192.241 40.6649 190.18 35.1175 187.423 29.9096C186.435 28.1665 185.269 26.531 183.943 25.0296C179.943 20.5296 174.943 19.6796 169.653 22.4996C165.783 24.419 162.481 27.3143 160.073 30.8996C157.303 35.2696 153.473 36.4396 148.793 36.3896C147.963 36.3896 147.123 36.4996 146.293 36.4396C144.763 36.3296 144.203 35.6396 144.433 34.1396C144.516 33.5909 144.699 33.0621 144.973 32.5796C149.893 23.8396 154.973 15.1796 162.063 7.97961C164.404 5.60659 167.035 3.53703 169.893 1.81958C175.453 -1.50042 181.183 -0.180439 185.083 4.98956C188.823 9.98956 190.823 15.7496 192.373 21.6896C194.543 30.3083 195.777 39.1361 196.053 48.0196C196.025 48.6219 196.163 49.2203 196.452 49.7493C196.742 50.2784 197.171 50.7178 197.693 51.0196C214.543 62.3696 225.143 77.8996 228.363 98.0896C230.847 112.574 228.496 127.474 221.673 140.49C221.233 141.33 220.853 142.19 220.463 143.04C220.463 143.12 220.463 143.25 220.563 143.66C222.113 143.38 223.683 143.18 225.213 142.81C230.644 141.59 235.871 139.593 240.733 136.88C244.513 134.68 247.653 131.76 248.073 127.15C248.209 124.838 247.869 122.524 247.073 120.35C245.529 116.263 242.98 112.631 239.663 109.79C238.106 108.392 236.892 106.655 236.115 104.713C235.338 102.77 235.019 100.675 235.183 98.5896C235.183 97.4696 235.183 96.3396 236.423 95.7196C236.972 95.4334 237.592 95.3132 238.208 95.3736C238.824 95.434 239.41 95.6723 239.893 96.0596C242.253 97.7196 244.623 99.3896 246.893 101.14C253.113 105.86 259.133 110.81 263.943 117.03C266.373 120.18 268.533 123.47 268.943 127.6C269.141 129.213 268.889 130.85 268.215 132.328C267.541 133.807 266.47 135.071 265.123 135.98C261.064 138.852 256.401 140.757 251.493 141.55C244.253 142.92 236.943 143.95 229.643 144.96C226.44 145.346 223.218 145.563 219.993 145.61C218.563 145.61 218.113 146.61 217.523 147.54C211.72 156.304 203.937 163.58 194.803 168.78C182.86 175.765 169.083 178.973 155.283 177.98C141.863 177.05 129.803 172.21 118.823 164.53L117.873 163.86C117.873 163.86 117.773 163.86 117.563 163.86C117.502 164.318 117.502 164.782 117.563 165.24C119.203 171.08 120.953 176.88 124.273 182.04C124.821 182.877 125.422 183.679 126.073 184.44C130.263 189.44 135.463 190.52 141.303 187.61C142.593 186.97 143.703 185.96 145.013 185.39C146.299 184.796 147.688 184.456 149.103 184.39C151.214 184.436 153.32 184.637 155.403 184.99C158.403 185.39 159.153 186.83 157.573 189.45C153.243 196.65 148.323 203.45 141.263 208.18C139.144 209.596 136.764 210.575 134.263 211.06C129.913 211.92 126.633 209.75 124.173 206.28C121.033 201.83 119.513 196.71 118.393 191.48C116.521 183.009 115.493 174.373 115.323 165.7C115.357 164.386 115.106 163.08 114.588 161.871C114.07 160.663 113.298 159.581 112.323 158.7C102.044 148.801 95.092 135.957 92.4249 121.939C89.7578 107.921 91.5075 93.4207 97.4326 80.4396C97.7726 79.5296 98.0625 78.6996 98.6026 77.3696ZM95.8126 108.85C95.7038 125.93 102.385 142.353 114.385 154.507C126.385 166.662 142.723 173.551 159.803 173.66C176.883 173.768 193.306 167.088 205.46 155.087C217.615 143.087 224.504 126.75 224.613 109.67C224.913 73.9496 196.283 45.1496 161.473 44.6696C125.553 44.1396 95.8126 72.6996 95.8126 108.85Z" fill="#C8684E"/>
<path d="M163.163 201.38C162.493 201.38 161.823 201.38 161.163 201.38C158.833 201.38 157.713 200.38 157.703 198.29C157.693 196.2 158.783 195.44 161.223 195.19C166.683 194.62 172.223 194.4 177.563 193.19C201.173 188.01 219.703 175.35 232.683 154.81C233.516 153.497 234.42 152.232 235.393 151.02C235.58 150.722 235.824 150.465 236.112 150.262C236.399 150.06 236.724 149.916 237.067 149.84C237.41 149.764 237.765 149.756 238.111 149.818C238.457 149.88 238.787 150.01 239.083 150.2C239.718 150.555 240.207 151.123 240.463 151.804C240.719 152.485 240.726 153.234 240.483 153.92C240.029 155.052 239.467 156.137 238.803 157.16C225.233 178.49 206.323 192.59 181.803 198.75C175.803 200.27 169.463 200.83 163.283 201.83L163.163 201.38Z" fill="#C8684E"/>
<path d="M141.362 18.3796C143.362 18.3796 144.362 19.1296 144.662 20.6796C145.012 22.5096 144.412 23.7297 142.572 24.2997C139.082 25.3797 135.472 26.1397 132.032 27.3497C111.607 34.2457 94.5255 48.5752 84.1824 67.4896C83.6424 68.4896 83.1824 69.4896 82.6324 70.4396C82.2305 71.1836 81.556 71.7429 80.7505 72.0002C79.945 72.2575 79.0712 72.1928 78.3124 71.8196C77.9414 71.6539 77.6092 71.4123 77.3373 71.1104C77.0653 70.8085 76.8596 70.453 76.7334 70.0668C76.6071 69.6805 76.5632 69.2722 76.6043 68.8679C76.6455 68.4637 76.7709 68.0725 76.9724 67.7197C78.5976 64.4348 80.4106 61.2462 82.4024 58.1697C96.3024 37.383 115.449 24.1796 139.842 18.5596C140.112 18.4936 140.386 18.4469 140.662 18.4197C140.992 18.3897 141.222 18.3796 141.362 18.3796Z" fill="#C8684E"/>
<path d="M250.463 90.0796C250.463 92.7496 249.523 94.0796 247.743 94.3696C246.303 94.6296 245.013 93.8396 244.433 91.9496C243.433 88.6696 242.713 85.2796 241.653 82.0196C237.218 68.3436 229.387 56.0159 218.893 46.1896C214.193 41.6737 208.941 37.7694 203.263 34.5696C202.923 34.3796 202.583 34.1796 202.263 33.9596C200.553 32.8396 199.963 31.0296 200.813 29.5396C201.267 28.7921 201.999 28.2554 202.848 28.0472C203.697 27.8391 204.595 27.9766 205.343 28.4296C206.965 29.2873 208.537 30.2355 210.053 31.2696C229.753 44.2696 242.723 62.0796 249.133 84.7496C249.683 86.7196 250.123 88.7196 250.463 90.0796Z" fill="#C8684E"/>
<path d="M69.7627 130.51C69.7627 128.1 70.4627 127.05 72.0627 126.69C72.4364 126.556 72.8346 126.504 73.2302 126.537C73.6258 126.571 74.0094 126.69 74.3549 126.885C74.7005 127.081 74.9998 127.349 75.2324 127.67C75.465 127.992 75.6254 128.36 75.7027 128.75C76.9227 132.26 77.8427 135.87 79.0827 139.37C82.6735 149.165 88.1043 158.184 95.0827 165.94C99.2712 170.789 104.04 175.105 109.283 178.79C110.463 179.62 111.433 180.52 111.283 182.17C111.113 184.37 109.643 185.54 107.523 184.87C106.585 184.53 105.703 184.055 104.903 183.46C99.2927 179.64 94.5827 174.85 90.0427 169.85C80.2727 159.06 74.2227 146.31 70.1127 132.52C69.9543 131.858 69.8374 131.186 69.7627 130.51Z" fill="#C8684E"/>
<path d="M164.092 86.5596C164.076 81.7008 162.802 76.9291 160.392 72.7096C159.232 70.5596 157.812 68.5496 156.582 66.4396C155.912 65.2896 155.202 65.1396 154.022 65.7596C148.193 68.9083 142.735 72.7021 137.752 77.0696C136.942 77.7596 136.192 78.5096 135.422 79.2296C131.612 82.7696 129.972 87.0196 131.352 92.1696C132.352 95.7996 133.352 99.4096 134.432 103.03C134.769 103.966 135.027 104.93 135.202 105.91C135.432 108.32 133.362 110 131.202 108.91C124.722 105.46 120.272 109.82 115.442 112.77C115.282 112.971 115.171 113.207 115.119 113.459C115.067 113.711 115.075 113.971 115.142 114.22C116.474 118.618 119.149 122.489 122.792 125.29C124.012 126.18 125.892 126.22 127.502 126.51C128.224 126.553 128.948 126.492 129.652 126.33C130.248 126.162 130.883 126.207 131.45 126.454C132.017 126.702 132.481 127.139 132.762 127.69C133.118 128.268 133.262 128.951 133.171 129.624C133.08 130.296 132.759 130.917 132.262 131.38C131.362 132.216 130.667 133.248 130.23 134.396C129.793 135.544 129.626 136.777 129.742 138C129.851 139.66 130.24 141.289 130.892 142.82C132.132 145.41 133.732 147.82 135.192 150.31C135.258 150.478 135.362 150.63 135.496 150.752C135.63 150.874 135.79 150.964 135.964 151.014C136.138 151.064 136.321 151.074 136.5 151.042C136.678 151.01 136.847 150.937 136.992 150.83C140.692 148.83 144.372 146.83 147.092 143.59C147.942 142.514 148.543 141.264 148.852 139.93C149.312 138.11 150.192 137.1 151.852 137.13C152.641 137.152 153.391 137.476 153.949 138.033C154.506 138.591 154.83 139.341 154.852 140.13C154.882 141.721 154.568 143.3 153.932 144.76C152.997 146.526 151.773 148.125 150.312 149.49C146.392 153.21 141.652 155.69 136.772 157.9C136.122 158.297 135.351 158.45 134.598 158.331C133.845 158.212 133.159 157.828 132.662 157.25C128.809 153.135 125.877 148.247 124.062 142.91C123.277 140.003 123.167 136.955 123.742 134C123.802 133.56 123.502 132.72 123.192 132.62C118.062 131 114.782 127.28 112.302 122.82C110.775 119.925 109.419 116.943 108.242 113.89C107.352 111.7 107.782 110.57 109.602 109.08C114.322 105.23 119.492 102.29 125.602 101.3C126.602 101.14 126.702 100.68 126.492 99.7896C125.832 96.9796 125.172 94.1696 124.692 91.3296C123.412 83.7196 127.112 78.1496 132.302 73.2496C138.222 67.6696 145.102 63.4696 152.222 59.6396C157.092 57.0196 157.672 57.1496 160.942 61.6396C165.462 67.8096 168.942 74.4596 170.092 82.1296C170.376 84.2677 170.429 86.4301 170.252 88.5796C170.245 89.0138 170.15 89.4421 169.975 89.8394C169.799 90.2366 169.546 90.5947 169.231 90.8928C168.915 91.1909 168.543 91.4229 168.136 91.5752C167.729 91.7275 167.296 91.797 166.862 91.7796C165.142 91.6696 164.072 90.2796 164.052 88.0996L164.092 86.5596Z" fill="#C8684E"/>
<path d="M158.703 106.259C158.811 103.251 159.906 100.362 161.817 98.0363C163.729 95.7108 166.352 94.0781 169.283 93.3894C172.135 92.7752 175.111 93.1385 177.733 94.4209C180.354 95.7034 182.467 97.8303 183.733 100.459C184.986 103.087 185.333 106.056 184.719 108.902C184.106 111.748 182.567 114.311 180.343 116.189C179.608 116.784 178.793 117.272 177.923 117.639C177.193 117.984 176.358 118.032 175.594 117.773C174.829 117.513 174.196 116.966 173.827 116.248C173.458 115.53 173.383 114.697 173.618 113.925C173.852 113.153 174.377 112.502 175.083 112.109C176.009 111.597 176.808 110.88 177.417 110.014C178.027 109.148 178.432 108.155 178.603 107.109C178.876 105.393 178.471 103.639 177.475 102.215C176.479 100.791 174.968 99.8106 173.263 99.4795C169.543 98.8995 165.633 101.669 165.423 105.229C165.428 106.447 165.73 107.645 166.303 108.719C168.923 113.989 171.653 119.209 174.303 124.449C174.672 125.135 175.006 125.839 175.303 126.559C175.601 127.222 175.649 127.97 175.438 128.666C175.226 129.361 174.77 129.956 174.153 130.339C173.518 130.758 172.752 130.93 172 130.821C171.248 130.712 170.562 130.331 170.073 129.749C169.712 129.328 169.403 128.865 169.153 128.369C166.243 122.939 163.273 117.539 160.503 112.039C159.747 110.165 159.145 108.232 158.703 106.259Z" fill="#C8684E"/>
<path d="M147.152 132.91C139.992 132.91 135.212 129.37 133.472 123.98C131.622 118.27 133.252 112.63 138.162 109.4C141.607 107.27 145.17 105.337 148.832 103.61C149.187 103.411 149.578 103.287 149.981 103.244C150.385 103.201 150.793 103.241 151.181 103.361C151.569 103.481 151.929 103.678 152.239 103.94C152.548 104.203 152.801 104.526 152.982 104.89C153.175 105.247 153.295 105.638 153.336 106.042C153.377 106.445 153.338 106.853 153.221 107.241C153.104 107.63 152.911 107.991 152.654 108.305C152.397 108.619 152.08 108.878 151.722 109.07C150.162 110.07 148.492 110.8 146.872 111.66C145.252 112.52 143.672 113.23 142.182 114.19C140.788 115.089 139.778 116.474 139.349 118.077C138.921 119.679 139.103 121.384 139.862 122.86C140.566 124.363 141.816 125.542 143.358 126.156C144.899 126.771 146.617 126.776 148.162 126.17C149.962 125.48 151.632 124.43 153.372 123.58C155.112 122.73 156.752 121.9 158.502 121.21C158.823 121.062 159.17 120.979 159.522 120.968C159.875 120.956 160.227 121.014 160.556 121.14C160.886 121.266 161.187 121.456 161.443 121.7C161.698 121.944 161.902 122.236 162.042 122.56C162.762 123.9 162.722 125.56 161.432 126.34C156.582 129.47 151.632 132.46 147.152 132.91Z" fill="#C8684E"/>
<path d="M211.833 92.0997C211.867 94.98 210.955 97.7919 209.237 100.104C207.519 102.416 205.09 104.101 202.323 104.9C199.641 105.722 196.763 105.635 194.135 104.653C191.508 103.671 189.278 101.849 187.793 99.4697C185.943 96.4697 184.283 93.2897 182.723 90.0897C181.323 87.2097 182.723 84.5597 185.473 84.9797C186.612 85.2978 187.59 86.0333 188.213 87.0397C189.543 89.1397 190.503 91.4797 191.753 93.6397C192.517 95.0512 193.469 96.353 194.583 97.5097C195.528 98.4753 196.779 99.0837 198.123 99.2314C199.466 99.379 200.82 99.0569 201.953 98.3197C204.533 96.8097 206.043 93.8197 205.273 91.1297C204.646 89.37 203.883 87.6616 202.993 86.0197C202.143 84.2097 201.123 82.4697 200.413 80.6097C199.413 78.0097 200.153 76.4997 202.343 75.8497C202.926 75.6289 203.572 75.6337 204.152 75.863C204.733 76.0922 205.207 76.5296 205.483 77.0897C207.613 81.2897 209.613 85.5497 211.563 89.8297C211.785 90.5647 211.876 91.3331 211.833 92.0997Z" fill="#C8684E"/>
<path d="M146.353 122.85C144.353 122.96 143.353 122.17 142.913 120.78C142.65 120.148 142.629 119.442 142.854 118.797C143.079 118.151 143.534 117.611 144.133 117.28C147.213 115.53 150.363 113.88 153.593 112.41C153.948 112.24 154.334 112.142 154.728 112.122C155.122 112.101 155.515 112.159 155.887 112.291C156.258 112.422 156.6 112.626 156.893 112.89C157.185 113.154 157.423 113.474 157.593 113.83C157.786 114.142 157.913 114.491 157.968 114.854C158.022 115.218 158.002 115.589 157.908 115.944C157.815 116.3 157.65 116.632 157.424 116.922C157.197 117.212 156.915 117.452 156.593 117.63C153.393 119.5 150.043 121.1 146.743 122.79C146.543 122.91 146.223 122.86 146.353 122.85Z" fill="#C8684E"/>
<path d="M202.182 92.6698C201.523 93.5902 200.747 94.4205 199.872 95.1398C199.343 95.4709 198.708 95.59 198.094 95.4732C197.48 95.3564 196.933 95.0123 196.562 94.5097C195.952 93.7905 195.428 93.0017 195.002 92.1598C193.762 89.8098 192.512 87.4498 191.382 85.0398C191.153 84.642 191.012 84.1991 190.97 83.7416C190.928 83.2841 190.987 82.8231 191.141 82.3903C191.295 81.9575 191.541 81.5634 191.863 81.2353C192.184 80.9071 192.573 80.6527 193.002 80.4897C194.342 79.9597 195.692 80.0998 196.402 81.3598C198.262 84.6298 199.952 88.0098 201.682 91.3598C201.786 91.6829 201.836 92.0206 201.832 92.3598L202.182 92.6698Z" fill="#C8684E"/>
<path d="M4.00734 230.775C4.00734 230.775 46.2526 244.184 111.431 242.01C176.61 239.835 229.955 216.74 311 224.64V294.815C311 294.815 294.137 286.401 243.013 292.522C191.889 298.643 73.9664 320.453 4 298.247L4.00734 230.775Z" fill="#FDE7B6"/>
<path d="M4.00734 230.775C4.00734 230.775 46.2526 244.184 111.431 242.01C176.61 239.835 229.955 216.74 311 224.64V294.815C311 294.815 294.137 286.401 243.013 292.522C191.889 298.643 73.9664 320.453 4 298.247L4.00734 230.775Z" stroke="#E56848" stroke-width="8" stroke-miterlimit="10"/>
<path d="M70.0773 262.608L86.7159 262.823L86.9541 269.162L86.3781 269.155C85.51 266.989 84.5904 265.505 83.6194 264.703C82.6486 263.88 81.214 263.456 79.3154 263.431L78.1955 263.417L78.0678 273.304L79.1557 273.318C80.1583 273.331 81.0057 272.968 81.698 272.231C82.3905 271.471 82.8837 270.454 83.1775 269.177L83.6575 269.184L83.5352 278.655L82.9912 278.648C82.6279 277.043 82.12 275.895 81.4676 275.204C80.8364 274.513 79.9556 274.16 78.825 274.146L78.0571 274.136L77.9244 284.407L79.1403 284.423C81.1028 284.448 82.7743 283.883 84.1546 282.727C85.5563 281.572 86.525 280.08 87.0607 278.252L87.7006 278.261L87.3545 285.233L69.788 285.006L69.7971 284.302L71.6849 284.326L71.9561 263.336L70.0682 263.312L70.0773 262.608Z" fill="#C8684E"/>
<path d="M93.8853 263.605L103.293 263.727C106.514 263.768 108.907 264.269 110.474 265.228C112.04 266.165 112.808 267.829 112.777 270.218C112.743 272.863 111.76 274.674 109.827 275.652C108.023 276.546 105.511 276.972 102.29 276.931L102.034 276.928L101.923 285.503L105.923 285.555L105.915 286.162L93.596 286.003L93.6039 285.395L95.6837 285.422L95.9573 264.24L93.8775 264.213L93.8853 263.605ZM102.197 264.321L102.042 276.32L102.714 276.328C103.994 276.345 104.885 275.919 105.386 275.051C105.888 274.182 106.152 272.767 106.177 270.805L106.197 269.269C106.221 267.456 106.002 266.183 105.542 265.452C105.104 264.721 104.277 264.347 103.061 264.332L102.197 264.321Z" fill="#C8684E"/>
<path d="M128.201 262.052C124.894 262.01 123.2 265.177 123.117 271.555L123.085 274.083C123.046 277.112 123.452 279.496 124.304 281.236C125.157 282.953 126.437 283.823 128.143 283.845C130.49 283.876 132.674 281.621 134.695 277.081L135.271 277.089L134.955 284.221L134.603 284.217C134.478 283.981 134.363 283.819 134.257 283.732C134.152 283.624 133.993 283.569 133.779 283.566C133.587 283.564 132.817 283.724 131.469 284.048C130.121 284.351 128.753 284.493 127.367 284.475C123.89 284.431 121.204 283.457 119.308 281.555C117.434 279.653 116.521 276.825 116.569 273.071C116.618 269.295 117.648 266.396 119.658 264.374C121.689 262.352 124.39 261.363 127.761 261.407C129.062 261.423 130.329 261.61 131.562 261.968C132.816 262.304 133.55 262.473 133.764 262.476C133.977 262.479 134.137 262.438 134.245 262.354C134.353 262.249 134.473 262.08 134.604 261.847L134.956 261.852L135.122 268.798L134.546 268.791C133.614 266.624 132.643 264.969 131.634 263.825C130.646 262.66 129.502 262.069 128.201 262.052Z" fill="#C8684E"/>
<path d="M152.467 263.157C152.485 261.728 153.119 260.563 154.368 259.661C155.617 258.76 157.479 258.325 159.953 258.357C162.428 258.389 164.32 258.873 165.631 259.807C166.963 260.741 167.617 262.126 167.593 263.961C167.586 264.558 167.525 265.101 167.412 265.59C167.3 266.058 167.048 266.556 166.657 267.085C166.288 267.592 165.919 268.046 165.551 268.447C165.205 268.847 164.601 269.373 163.739 270.023C162.446 271.031 161.089 272.037 159.668 273.043C158.247 274.027 157.418 274.603 157.181 274.771L155.211 276.154L162.89 276.253C164.362 276.272 165.412 275.965 166.038 275.333C166.665 274.701 167.116 273.705 167.389 272.343L167.933 272.35L167.499 281.209L152.46 281.015L152.508 277.303L155.778 274.369C158.001 272.392 159.581 270.631 160.519 269.086C161.456 267.519 161.937 265.797 161.962 263.92C161.986 262.021 161.8 260.728 161.404 260.04C161.007 259.331 160.329 258.97 159.369 258.958C158.409 258.946 157.734 259.182 157.344 259.668C156.954 260.153 156.756 260.62 156.75 261.068C156.744 261.516 156.803 261.912 156.927 262.255L157.887 262.267C158.051 262.717 158.13 263.262 158.121 263.902C158.113 264.521 157.84 265.061 157.3 265.524C156.761 265.965 156.055 266.18 155.18 266.168C154.305 266.157 153.626 265.871 153.143 265.31C152.681 264.728 152.456 264.01 152.467 263.157Z" fill="#C8684E"/>
<path d="M179.543 278.452C176.45 278.412 174.106 277.336 172.512 275.225C170.939 273.114 170.177 270.181 170.226 266.427C170.274 262.672 171.174 259.889 172.926 258.077C174.677 256.243 177.047 255.346 180.033 255.384C183.041 255.423 185.386 256.371 187.069 258.227C188.773 260.084 189.599 263.018 189.547 267.028C189.496 271.038 188.594 273.96 186.842 275.794C185.09 277.606 182.657 278.492 179.543 278.452ZM176.796 265.679L176.759 268.527C176.732 270.596 176.724 272.058 176.734 272.911C176.766 273.765 176.872 274.652 177.052 275.571C177.232 276.491 177.534 277.092 177.957 277.375C178.38 277.637 178.88 277.771 179.456 277.779C180.032 277.786 180.459 277.76 180.737 277.699C181.036 277.639 181.294 277.514 181.51 277.325C181.747 277.115 181.942 276.915 182.094 276.725C182.246 276.513 182.367 276.195 182.458 275.769C182.57 275.344 182.661 274.951 182.729 274.589C182.798 274.227 182.847 273.694 182.878 272.99C182.938 271.626 182.977 270.25 182.995 268.864L183.032 266.048C183.086 261.867 182.96 259.166 182.656 257.946C182.373 256.705 181.507 256.075 180.056 256.057C178.606 256.038 177.712 256.656 177.376 257.91C177.04 259.165 176.846 261.754 176.796 265.679Z" fill="#C8684E"/>
<path d="M194.467 256.157C194.485 254.728 195.119 253.563 196.368 252.661C197.617 251.76 199.479 251.325 201.953 251.357C204.428 251.389 206.32 251.873 207.631 252.807C208.963 253.741 209.617 255.126 209.593 256.961C209.586 257.558 209.525 258.101 209.412 258.59C209.3 259.058 209.048 259.556 208.657 260.085C208.288 260.592 207.919 261.046 207.551 261.447C207.205 261.847 206.601 262.373 205.739 263.023C204.446 264.031 203.089 265.037 201.668 266.043C200.247 267.027 199.418 267.603 199.181 267.771L197.211 269.154L204.89 269.253C206.362 269.272 207.412 268.965 208.038 268.333C208.665 267.701 209.116 266.705 209.389 265.343L209.933 265.35L209.499 274.209L194.46 274.015L194.508 270.303L197.778 267.369C200.001 265.392 201.581 263.631 202.519 262.086C203.456 260.519 203.937 258.797 203.962 256.92C203.986 255.021 203.8 253.728 203.404 253.04C203.007 252.331 202.329 251.97 201.369 251.958C200.409 251.946 199.734 252.182 199.344 252.668C198.954 253.153 198.756 253.62 198.75 254.068C198.744 254.516 198.803 254.912 198.927 255.255L199.887 255.267C200.051 255.717 200.13 256.262 200.121 256.902C200.113 257.521 199.84 258.061 199.3 258.524C198.761 258.965 198.055 259.18 197.18 259.168C196.305 259.157 195.626 258.871 195.143 258.31C194.681 257.728 194.456 257.01 194.467 256.157Z" fill="#C8684E"/>
<path d="M212.467 254.157C212.485 252.728 213.119 251.563 214.368 250.661C215.617 249.76 217.479 249.325 219.953 249.357C222.428 249.389 224.32 249.873 225.631 250.807C226.963 251.741 227.617 253.126 227.593 254.961C227.586 255.558 227.525 256.101 227.412 256.59C227.3 257.058 227.048 257.556 226.657 258.085C226.288 258.592 225.919 259.046 225.551 259.447C225.205 259.847 224.601 260.373 223.739 261.023C222.446 262.031 221.089 263.037 219.668 264.043C218.247 265.027 217.418 265.603 217.181 265.771L215.211 267.154L222.89 267.253C224.362 267.272 225.412 266.965 226.038 266.333C226.665 265.701 227.116 264.705 227.389 263.343L227.933 263.35L227.499 272.209L212.46 272.015L212.508 268.303L215.778 265.369C218.001 263.392 219.581 261.631 220.519 260.086C221.456 258.519 221.937 256.797 221.962 254.92C221.986 253.021 221.8 251.728 221.404 251.04C221.007 250.331 220.329 249.97 219.369 249.958C218.409 249.946 217.734 250.182 217.344 250.668C216.954 251.153 216.756 251.62 216.75 252.068C216.744 252.516 216.803 252.912 216.927 253.255L217.887 253.267C218.051 253.717 218.13 254.262 218.121 254.902C218.113 255.521 217.84 256.061 217.3 256.524C216.761 256.965 216.055 257.18 215.18 257.168C214.305 257.157 213.626 256.871 213.143 256.31C212.681 255.728 212.456 255.01 212.467 254.157Z" fill="#C8684E"/>
</svg>
