<svg width="64" height="63" viewBox="0 0 64 63" fill="none" xmlns="http://www.w3.org/2000/svg">
<path d="M14.4898 23.2045C13.8738 23.3613 13.4032 23.4658 12.947 23.6052C11.4129 24.0697 9.91083 24.6213 8.58886 25.5474C7.57487 26.2557 6.82818 27.1586 6.64804 28.4505C6.56195 29.2413 6.70728 30.04 7.06642 30.7498C7.57167 31.8962 8.35448 32.8989 9.34427 33.6675C10.6372 34.6633 10.8987 36.0452 11.0004 37.5229C11.0236 37.8655 10.8231 37.9932 10.5152 37.9555C10.3558 37.9295 10.2023 37.8754 10.0619 37.7958C7.6969 36.4981 5.32317 35.2062 3.26322 33.4411C2.16098 32.5585 1.24627 31.4649 0.572791 30.2244C-0.380189 28.3257 0.0498168 26.6593 1.81051 25.4545C3.19639 24.508 4.77695 24.0406 6.38655 23.6748C8.97791 23.1239 11.6125 22.8004 14.2603 22.7081C14.4322 22.7139 14.602 22.6688 14.7483 22.5784C14.8946 22.488 15.0109 22.3563 15.0825 22.2C17.3831 18.3084 20.9376 15.3125 25.1643 13.7025C30.8328 11.5135 36.3967 11.9925 41.8066 14.6663C41.9054 14.7128 42.0071 14.7534 42.1814 14.8289C42.1407 14.5821 42.1233 14.3964 42.0768 14.2164C41.6956 12.5486 41.0968 10.9381 40.2958 9.42615C40.0089 8.9201 39.67 8.44529 39.2847 8.0094C38.1225 6.70298 36.6698 6.45621 35.1328 7.2749C34.0086 7.83215 33.0493 8.67269 32.3494 9.71356C31.5446 10.9822 30.4319 11.3219 29.0721 11.3074C28.831 11.3074 28.5869 11.3393 28.3458 11.3219C27.9012 11.29 27.7385 11.0897 27.8054 10.6542C27.8295 10.4949 27.8826 10.3414 27.9622 10.2013C29.3917 7.66393 30.8677 5.1498 32.9276 3.05953C33.608 2.3706 34.3723 1.76977 35.2026 1.27117C36.818 0.307324 38.4828 0.690536 39.6159 2.19147C40.7026 3.64305 41.2836 5.31527 41.734 7.03974C42.3646 9.54188 42.7231 12.1047 42.8032 14.6838C42.7951 14.8586 42.8353 15.0323 42.9193 15.1859C43.0033 15.3395 43.128 15.4671 43.2797 15.5547C48.1753 18.8498 51.2551 23.3584 52.1906 29.2199C52.9125 33.4249 52.2295 37.7506 50.2469 41.5292C50.119 41.7731 50.0086 42.0228 49.8953 42.2696C49.8953 42.2928 49.8953 42.3305 49.9244 42.4496C50.3747 42.3683 50.8309 42.3102 51.2754 42.2028C52.8535 41.8487 54.3723 41.2689 55.7846 40.4812C56.8829 39.8425 57.7952 38.9948 57.9172 37.6564C57.957 36.9854 57.8581 36.3134 57.6267 35.6823C57.1782 34.4959 56.4377 33.4415 55.4737 32.6166C55.0214 32.2109 54.6688 31.7065 54.443 31.1426C54.2173 30.5787 54.1246 29.9705 54.1721 29.365C54.1721 29.0399 54.1721 28.7118 54.5324 28.5318C54.6919 28.4487 54.8721 28.4138 55.0512 28.4314C55.2302 28.4489 55.4002 28.5181 55.5406 28.6305C56.2262 29.1124 56.9148 29.5973 57.5744 30.1053C59.3815 31.4756 61.1306 32.9127 62.5281 34.7184C63.2341 35.6329 63.8617 36.5881 63.9808 37.7871C64.0384 38.2554 63.9652 38.7306 63.7694 39.16C63.5735 39.5893 63.2625 39.9562 62.871 40.2199C61.6917 41.0538 60.3371 41.6069 58.9109 41.837C56.8073 42.2347 54.6835 42.5337 52.5625 42.827C51.6319 42.9392 50.696 43.0022 49.7588 43.0157C49.3433 43.0157 49.2126 43.306 49.0411 43.576C47.3553 46.1203 45.094 48.2327 42.44 49.7423C38.9702 51.7704 34.9672 52.7015 30.9577 52.4132C27.0587 52.1432 23.5547 50.7381 20.3646 48.5084L20.0885 48.3139C20.0885 48.3139 20.0595 48.3139 19.9985 48.3139C19.981 48.4469 19.981 48.5816 19.9985 48.7146C20.475 50.41 20.9834 52.0938 21.948 53.5919C22.1073 53.835 22.282 54.0677 22.471 54.2886C23.6884 55.7402 25.1992 56.0537 26.896 55.2089C27.2708 55.0231 27.5933 54.7299 27.9739 54.5644C28.3476 54.3921 28.7511 54.2935 29.1622 54.2741C29.7758 54.2876 30.3875 54.3458 30.9926 54.4483C31.8642 54.5644 32.0821 54.9825 31.6231 55.7431C30.365 57.8334 28.9356 59.8075 26.8843 61.1807C26.2689 61.592 25.5774 61.8763 24.8505 62.0168C23.5867 62.2665 22.6337 61.6365 21.919 60.6291C21.0067 59.3372 20.565 57.8508 20.2396 56.3325C19.6959 53.8732 19.3972 51.3662 19.3477 48.8481C19.3575 48.4666 19.2847 48.0875 19.1343 47.7367C18.9839 47.386 18.7593 47.0719 18.476 46.8159C15.4898 43.9423 13.4698 40.2133 12.6949 36.1437C11.92 32.0741 12.4284 27.8644 14.1499 24.0958C14.2486 23.8316 14.3329 23.5906 14.4898 23.2045ZM13.6792 32.3437C13.6476 37.3022 15.5886 42.0703 19.0752 45.5988C22.5619 49.1274 27.3085 51.1275 32.271 51.159C37.2334 51.1906 42.0052 49.2511 45.5365 45.7672C49.0679 42.2832 51.0695 37.5403 51.1011 32.5817C51.1882 22.2117 42.87 13.8506 32.7562 13.7112C22.3199 13.5573 13.6792 21.8488 13.6792 32.3437Z" fill="#F2F2F2"/>
<path d="M33.247 59.2067C33.0524 59.2067 32.8577 59.2067 32.6659 59.2067C31.989 59.2067 31.6636 58.9164 31.6607 58.3096C31.6578 57.7029 31.9744 57.4822 32.6834 57.4096C34.2697 57.2442 35.8793 57.1803 37.4308 56.829C44.2906 55.3252 49.6743 51.6498 53.4455 45.6867C53.6875 45.3057 53.9504 44.9384 54.2329 44.5864C54.2873 44.5 54.3583 44.4253 54.4418 44.3666C54.5253 44.3078 54.6196 44.2661 54.7193 44.244C54.819 44.2218 54.9221 44.2197 55.0226 44.2376C55.1231 44.2555 55.2191 44.2931 55.305 44.3483C55.4896 44.4514 55.6316 44.6163 55.7061 44.814C55.7805 45.0117 55.7825 45.2293 55.7118 45.4283C55.58 45.757 55.4166 46.072 55.2237 46.3689C51.281 52.5614 45.7868 56.6548 38.6627 58.4432C36.9195 58.8844 35.0774 59.047 33.2819 59.3373L33.247 59.2067Z" fill="#F2F2F2"/>
<path d="M26.9136 6.07886C27.4947 6.07886 27.7852 6.29659 27.8724 6.74658C27.974 7.27786 27.7997 7.63206 27.2651 7.79754C26.2511 8.11108 25.2023 8.33172 24.2028 8.683C18.2685 10.685 13.3054 14.8451 10.3003 20.3363C10.1434 20.6266 10.0098 20.9169 9.85 21.1927C9.73322 21.4087 9.53725 21.5711 9.30322 21.6458C9.0692 21.7205 8.81532 21.7017 8.59486 21.5933C8.48707 21.5452 8.39056 21.4751 8.31154 21.3874C8.23252 21.2998 8.17275 21.1966 8.13608 21.0844C8.0994 20.9723 8.08663 20.8538 8.09859 20.7364C8.11055 20.619 8.14698 20.5055 8.20553 20.403C8.67772 19.4494 9.20447 18.5237 9.78317 17.6305C13.8217 11.5958 19.3846 7.76269 26.4719 6.13111C26.5503 6.11194 26.6299 6.09837 26.7102 6.09048C26.8061 6.08177 26.8729 6.07886 26.9136 6.07886Z" fill="#F2F2F2"/>
<path d="M58.6115 26.8944C58.6115 27.6695 58.3384 28.0557 57.8212 28.1399C57.4028 28.2153 57.0281 27.986 56.8595 27.4373C56.569 26.4851 56.3598 25.5009 56.0518 24.5545C54.7634 20.5841 52.4882 17.0052 49.4391 14.1524C48.0735 12.8414 46.5477 11.708 44.8979 10.779C44.7991 10.7238 44.7003 10.6658 44.6074 10.6019C44.1105 10.2767 43.9391 9.75127 44.1861 9.3187C44.3179 9.10169 44.5306 8.94587 44.7774 8.88544C45.0242 8.82502 45.2849 8.86493 45.5022 8.99644C45.9735 9.24545 46.4303 9.52073 46.8707 9.82094C52.5944 13.595 56.3627 18.7656 58.2251 25.347C58.3849 25.9189 58.5127 26.4996 58.6115 26.8944Z" fill="#F2F2F2"/>
<path d="M6.11035 38.632C6.11035 37.9323 6.31374 37.6275 6.7786 37.523C6.88717 37.484 7.00286 37.4689 7.1178 37.4787C7.23273 37.4885 7.34421 37.523 7.4446 37.5797C7.54499 37.6365 7.63194 37.7143 7.69952 37.8077C7.7671 37.9011 7.81371 38.008 7.83618 38.121C8.19064 39.14 8.45794 40.1881 8.81821 41.2042C9.86148 44.048 11.4394 46.6663 13.4669 48.9179C14.6838 50.3257 16.0695 51.5787 17.5926 52.6484C17.9354 52.8894 18.2173 53.1507 18.1737 53.6297C18.1243 54.2684 17.6972 54.6081 17.0812 54.4135C16.8089 54.3149 16.5524 54.177 16.32 54.0042C14.6901 52.8952 13.3216 51.5046 12.0026 50.053C9.16395 46.9205 7.40617 43.219 6.21204 39.2155C6.16601 39.0233 6.13205 38.8284 6.11035 38.632Z" fill="#F2F2F2"/>
<path d="M33.5174 25.8725C33.5128 24.4619 33.1424 23.0766 32.4424 21.8516C32.1054 21.2275 31.6928 20.6439 31.3355 20.0314C31.1408 19.6975 30.9345 19.654 30.5917 19.8339C28.8979 20.7481 27.3122 21.8495 25.8646 23.1174C25.6292 23.3177 25.4113 23.5355 25.1876 23.7445C24.0806 24.7722 23.6041 26.0061 24.0051 27.5012C24.2956 28.555 24.5862 29.6031 24.9 30.654C24.9978 30.926 25.0726 31.2057 25.1237 31.4901C25.1905 32.1898 24.5891 32.6775 23.9615 32.3611C22.0788 31.3595 20.7859 32.6253 19.3825 33.4817C19.336 33.5401 19.3039 33.6087 19.2887 33.6818C19.2736 33.7549 19.2759 33.8306 19.2954 33.9027C19.6822 35.1796 20.4594 36.3034 21.518 37.1164C21.8725 37.3748 22.4187 37.3864 22.8865 37.4706C23.0961 37.4831 23.3065 37.4655 23.5112 37.4184C23.6842 37.3698 23.8688 37.3827 24.0335 37.4546C24.1982 37.5266 24.3329 37.6533 24.4148 37.8132C24.518 37.9811 24.56 38.1795 24.5335 38.3747C24.507 38.57 24.4137 38.7501 24.2695 38.8845C24.008 39.1271 23.8059 39.4267 23.6789 39.76C23.5519 40.0933 23.5035 40.4513 23.5373 40.8063C23.5688 41.2883 23.6818 41.7614 23.8714 42.2057C24.2317 42.9576 24.6966 43.6572 25.1208 44.3801C25.1399 44.4291 25.1701 44.4731 25.209 44.5085C25.2479 44.544 25.2944 44.57 25.345 44.5846C25.3955 44.5992 25.4488 44.602 25.5006 44.5927C25.5524 44.5834 25.6014 44.5623 25.6437 44.5311C26.7187 43.9505 27.7879 43.3698 28.5782 42.4292C28.825 42.1171 28.9996 41.7542 29.0896 41.3667C29.2232 40.8383 29.4789 40.5451 29.9612 40.5538C30.1903 40.5604 30.4082 40.6542 30.5703 40.8162C30.7323 40.9781 30.8262 41.1958 30.8328 41.4247C30.8415 41.8868 30.7503 42.3452 30.5655 42.7689C30.2937 43.2818 29.9382 43.7459 29.5138 44.1421C28.3748 45.222 26.9977 45.942 25.5798 46.5836C25.3908 46.699 25.1668 46.7434 24.948 46.7088C24.7292 46.6742 24.5299 46.563 24.3857 46.3949C23.2661 45.2005 22.4143 43.7812 21.887 42.2318C21.6587 41.388 21.6269 40.5031 21.794 39.6451C21.8115 39.5173 21.7243 39.2735 21.6343 39.2444C20.1438 38.7741 19.1908 37.6942 18.4702 36.3994C18.0265 35.5591 17.6326 34.6934 17.2906 33.8068C17.0321 33.1711 17.157 32.843 17.6858 32.4104C19.0571 31.2927 20.5592 30.4392 22.3345 30.1518C22.625 30.1053 22.6541 29.9718 22.593 29.7134C22.4013 28.8976 22.2095 28.0818 22.0701 27.2573C21.6982 25.048 22.7732 23.431 24.2811 22.0084C26.0011 20.3884 28 19.1691 30.0687 18.0572C31.4836 17.2966 31.6522 17.3343 32.6022 18.6378C33.9155 20.4291 34.9266 22.3597 35.2607 24.5864C35.343 25.2071 35.3586 25.8349 35.3072 26.459C35.305 26.585 35.2776 26.7094 35.2266 26.8247C35.1756 26.94 35.1021 27.044 35.0103 27.1305C34.9186 27.2171 34.8105 27.2844 34.6923 27.3286C34.5741 27.3728 34.4483 27.393 34.3222 27.388C33.8225 27.356 33.5116 26.9525 33.5058 26.3196L33.5174 25.8725Z" fill="#F2F2F2"/>
<path d="M31.9512 31.5917C31.9828 30.7183 32.3007 29.8795 32.8562 29.2044C33.4116 28.5293 34.1737 28.0553 35.0251 27.8553C35.8539 27.677 36.7186 27.7825 37.4802 28.1548C38.2417 28.5271 38.8557 29.1446 39.2234 29.9079C39.5875 30.6708 39.6883 31.5327 39.5101 32.359C39.3319 33.1852 38.8847 33.9292 38.2385 34.4745C38.025 34.647 37.7883 34.7888 37.5354 34.8955C37.3234 34.9956 37.0807 35.0095 36.8587 34.9341C36.6367 34.8588 36.4526 34.7001 36.3455 34.4917C36.2384 34.2832 36.2165 34.0413 36.2846 33.8171C36.3527 33.5929 36.5053 33.4039 36.7103 33.29C36.9795 33.1412 37.2115 32.9332 37.3886 32.6817C37.5658 32.4303 37.6835 32.142 37.733 31.8385C37.8123 31.3403 37.6948 30.8308 37.4054 30.4175C37.1159 30.0042 36.6771 29.7195 36.1815 29.6234C35.1007 29.455 33.9646 30.2591 33.9036 31.2927C33.9053 31.6461 33.993 31.9939 34.1593 32.3059C34.9205 33.8358 35.7137 35.3513 36.4836 36.8725C36.591 37.0716 36.6879 37.276 36.7742 37.4851C36.8609 37.6774 36.8749 37.8947 36.8134 38.0965C36.752 38.2983 36.6193 38.471 36.44 38.5825C36.2558 38.7041 36.0333 38.7538 35.8147 38.7223C35.5962 38.6907 35.3969 38.58 35.2546 38.4112C35.1498 38.2889 35.06 38.1543 34.9873 38.0106C34.1418 36.4341 33.2789 34.8665 32.4741 33.2697C32.2545 32.7255 32.0796 32.1643 31.9512 31.5917Z" fill="#F2F2F2"/>
<path d="M28.5958 39.3286C26.5155 39.3286 25.1267 38.3009 24.6212 36.7361C24.0837 35.0784 24.5573 33.441 25.9838 32.5033C26.9847 31.8851 28.0197 31.3239 29.0839 30.8223C29.1869 30.7648 29.3005 30.7287 29.4178 30.7163C29.5351 30.7039 29.6537 30.7154 29.7664 30.7501C29.8792 30.7849 29.9837 30.8421 30.0736 30.9184C30.1635 30.9947 30.237 31.0884 30.2897 31.1939C30.3456 31.2976 30.3806 31.4112 30.3925 31.5284C30.4044 31.6456 30.393 31.7639 30.359 31.8767C30.3249 31.9895 30.269 32.0944 30.1943 32.1855C30.1195 32.2766 30.0276 32.352 29.9236 32.4074C29.4703 32.6978 28.9851 32.9097 28.5145 33.1594C28.0438 33.409 27.5847 33.6152 27.1518 33.8939C26.7467 34.1549 26.4533 34.5572 26.3287 35.0224C26.2041 35.4877 26.2572 35.9826 26.4777 36.4109C26.6822 36.8473 27.0453 37.1896 27.4932 37.3681C27.9412 37.5466 28.4403 37.5479 28.8892 37.3719C29.4122 37.1715 29.8974 36.8667 30.403 36.6199C30.9085 36.3732 31.385 36.1322 31.8935 35.9319C31.9866 35.889 32.0873 35.8651 32.1898 35.8616C32.2923 35.8582 32.3944 35.8752 32.4902 35.9117C32.586 35.9482 32.6736 36.0035 32.7477 36.0742C32.8219 36.145 32.8811 36.2298 32.922 36.3238C33.1312 36.7128 33.1196 37.1948 32.7448 37.4212C31.3356 38.3299 29.8974 39.1979 28.5958 39.3286Z" fill="#F2F2F2"/>
<path d="M47.3881 27.4808C47.398 28.317 47.1331 29.1333 46.6339 29.8046C46.1348 30.4758 45.4291 30.9649 44.625 31.1968C43.8458 31.4355 43.0096 31.4104 42.2462 31.1253C41.4828 30.8402 40.835 30.3112 40.4034 29.6204C39.8659 28.7495 39.3836 27.8263 38.9304 26.8972C38.5236 26.0611 38.9304 25.2918 39.7294 25.4137C40.0605 25.5061 40.3447 25.7196 40.5254 26.0118C40.9119 26.6215 41.1908 27.3008 41.554 27.9279C41.7762 28.3377 42.0528 28.7156 42.3762 29.0514C42.651 29.3317 43.0145 29.5083 43.4048 29.5512C43.7952 29.5941 44.1884 29.5006 44.5175 29.2865C45.2671 28.8482 45.7058 27.9801 45.4821 27.1992C45.3 26.6883 45.0785 26.1923 44.8197 25.7157C44.5727 25.1902 44.2763 24.685 44.0701 24.1451C43.7795 23.3902 43.9945 22.9519 44.6308 22.7632C44.8004 22.6991 44.9879 22.7004 45.1566 22.767C45.3253 22.8336 45.4631 22.9605 45.5431 23.1231C46.162 24.3425 46.7431 25.5792 47.3096 26.8218C47.3742 27.0352 47.4007 27.2582 47.3881 27.4808Z" fill="#F2F2F2"/>
<path d="M28.3632 36.4081C27.7821 36.44 27.4916 36.2107 27.3637 35.8072C27.2874 35.6239 27.2814 35.4189 27.3468 35.2315C27.4122 35.044 27.5444 34.8872 27.7182 34.791C28.6131 34.283 29.5283 33.804 30.4667 33.3772C30.5701 33.328 30.6822 33.2996 30.7966 33.2936C30.911 33.2877 31.0254 33.3044 31.1333 33.3427C31.2413 33.381 31.3406 33.4401 31.4256 33.5168C31.5106 33.5935 31.5797 33.6861 31.6289 33.7895C31.6851 33.8802 31.7221 33.9815 31.7379 34.087C31.7537 34.1925 31.7478 34.3002 31.7206 34.4034C31.6934 34.5066 31.6455 34.6032 31.5798 34.6873C31.5141 34.7714 31.4319 34.8413 31.3384 34.8927C30.4086 35.4355 29.4353 35.9001 28.4765 36.3907C28.4184 36.4255 28.3254 36.411 28.3632 36.4081Z" fill="#F2F2F2"/>
<path d="M44.5842 27.6464C44.3927 27.9136 44.1671 28.1547 43.9131 28.3635C43.7592 28.4596 43.5746 28.4942 43.3963 28.4603C43.2181 28.4264 43.0591 28.3265 42.9514 28.1806C42.774 27.9718 42.6218 27.7428 42.4981 27.4984C42.1378 26.8161 41.7747 26.131 41.4464 25.4313C41.3796 25.3158 41.3387 25.1872 41.3266 25.0544C41.3144 24.9216 41.3313 24.7878 41.3761 24.6621C41.4209 24.5365 41.4924 24.4221 41.5858 24.3268C41.6792 24.2315 41.7922 24.1577 41.917 24.1104C42.3064 23.9565 42.6986 23.9972 42.9049 24.363C43.4453 25.3123 43.9363 26.2936 44.4389 27.2661C44.469 27.3599 44.4837 27.4579 44.4825 27.5564L44.5842 27.6464Z" fill="#F2F2F2"/>
</svg>
